<mxfile host="app.diagrams.net" modified="2022-09-25T02:02:09.466Z" agent="5.0 (Windows)" etag="fVpO56kiKzV66IAgT_v6" version="20.3.6" type="github">
  <diagram id="R2lEEEUBdFMjLlhIrx00" name="Page-1">
    <mxGraphModel dx="2434" dy="2769" grid="1" gridSize="10" guides="1" tooltips="1" connect="1" arrows="1" fold="1" page="1" pageScale="1" pageWidth="850" pageHeight="1100" math="0" shadow="0" extFonts="Permanent Marker^https://fonts.googleapis.com/css?family=Permanent+Marker">
      <root>
        <mxCell id="0" />
        <mxCell id="1" parent="0" />
        <mxCell id="mAn_lP2nq0I7erpdQkr3-1" value="&lt;div&gt;ART_OBJECT&lt;/div&gt;" style="rounded=0;whiteSpace=wrap;html=1;" vertex="1" parent="1">
          <mxGeometry x="370" y="420" width="80" height="40" as="geometry" />
        </mxCell>
        <mxCell id="mAn_lP2nq0I7erpdQkr3-2" value="Title" style="ellipse;whiteSpace=wrap;html=1;" vertex="1" parent="1">
          <mxGeometry x="610" y="320" width="90" height="60" as="geometry" />
        </mxCell>
        <mxCell id="mAn_lP2nq0I7erpdQkr3-3" value="Year" style="ellipse;whiteSpace=wrap;html=1;" vertex="1" parent="1">
          <mxGeometry x="130" y="440" width="90" height="60" as="geometry" />
        </mxCell>
        <mxCell id="mAn_lP2nq0I7erpdQkr3-4" value="IdNo" style="ellipse;whiteSpace=wrap;html=1;" vertex="1" parent="1">
          <mxGeometry x="300" y="180" width="90" height="60" as="geometry" />
        </mxCell>
        <mxCell id="mAn_lP2nq0I7erpdQkr3-5" value="Description" style="ellipse;whiteSpace=wrap;html=1;" vertex="1" parent="1">
          <mxGeometry x="630" y="420" width="90" height="60" as="geometry" />
        </mxCell>
        <mxCell id="mAn_lP2nq0I7erpdQkr3-6" value="Artist" style="ellipse;whiteSpace=wrap;html=1;" vertex="1" parent="1">
          <mxGeometry x="196.03" y="210" width="90" height="60" as="geometry" />
        </mxCell>
        <mxCell id="mAn_lP2nq0I7erpdQkr3-8" value="" style="endArrow=none;html=1;rounded=0;exitX=0;exitY=0.5;exitDx=0;exitDy=0;entryX=0.954;entryY=0.773;entryDx=0;entryDy=0;entryPerimeter=0;" edge="1" parent="1" source="mAn_lP2nq0I7erpdQkr3-1" target="mAn_lP2nq0I7erpdQkr3-3">
          <mxGeometry width="50" height="50" relative="1" as="geometry">
            <mxPoint x="460" y="450" as="sourcePoint" />
            <mxPoint x="220" y="410" as="targetPoint" />
          </mxGeometry>
        </mxCell>
        <mxCell id="mAn_lP2nq0I7erpdQkr3-9" value="" style="endArrow=none;html=1;rounded=0;entryX=1;entryY=1;entryDx=0;entryDy=0;" edge="1" parent="1" source="mAn_lP2nq0I7erpdQkr3-1" target="mAn_lP2nq0I7erpdQkr3-6">
          <mxGeometry width="50" height="50" relative="1" as="geometry">
            <mxPoint x="470" y="460" as="sourcePoint" />
            <mxPoint x="520" y="410" as="targetPoint" />
          </mxGeometry>
        </mxCell>
        <mxCell id="mAn_lP2nq0I7erpdQkr3-10" value="" style="endArrow=none;html=1;rounded=0;entryX=0.5;entryY=1;entryDx=0;entryDy=0;" edge="1" parent="1" source="mAn_lP2nq0I7erpdQkr3-1" target="mAn_lP2nq0I7erpdQkr3-4">
          <mxGeometry width="50" height="50" relative="1" as="geometry">
            <mxPoint x="480" y="470" as="sourcePoint" />
            <mxPoint x="530" y="420" as="targetPoint" />
          </mxGeometry>
        </mxCell>
        <mxCell id="mAn_lP2nq0I7erpdQkr3-11" value="" style="endArrow=none;html=1;rounded=0;entryX=0;entryY=1;entryDx=0;entryDy=0;" edge="1" parent="1" source="mAn_lP2nq0I7erpdQkr3-1" target="mAn_lP2nq0I7erpdQkr3-2">
          <mxGeometry width="50" height="50" relative="1" as="geometry">
            <mxPoint x="490" y="480" as="sourcePoint" />
            <mxPoint x="540" y="430" as="targetPoint" />
          </mxGeometry>
        </mxCell>
        <mxCell id="mAn_lP2nq0I7erpdQkr3-13" value="" style="endArrow=none;html=1;rounded=0;entryX=0.021;entryY=0.642;entryDx=0;entryDy=0;entryPerimeter=0;exitX=1.018;exitY=0.641;exitDx=0;exitDy=0;exitPerimeter=0;" edge="1" parent="1" source="mAn_lP2nq0I7erpdQkr3-1" target="mAn_lP2nq0I7erpdQkr3-5">
          <mxGeometry width="50" height="50" relative="1" as="geometry">
            <mxPoint x="510" y="500" as="sourcePoint" />
            <mxPoint x="560" y="450" as="targetPoint" />
          </mxGeometry>
        </mxCell>
        <mxCell id="mAn_lP2nq0I7erpdQkr3-15" value="&lt;b&gt;d&lt;/b&gt;" style="ellipse;whiteSpace=wrap;html=1;aspect=fixed;" vertex="1" parent="1">
          <mxGeometry x="110" y="556.2" width="30" height="30" as="geometry" />
        </mxCell>
        <mxCell id="mAn_lP2nq0I7erpdQkr3-16" value="&lt;b&gt;d&lt;/b&gt;" style="ellipse;whiteSpace=wrap;html=1;aspect=fixed;" vertex="1" parent="1">
          <mxGeometry x="700" y="585" width="30" height="30" as="geometry" />
        </mxCell>
        <mxCell id="mAn_lP2nq0I7erpdQkr3-19" value="" style="endArrow=none;html=1;rounded=0;exitX=1;exitY=0;exitDx=0;exitDy=0;entryX=0.25;entryY=1;entryDx=0;entryDy=0;" edge="1" parent="1" source="mAn_lP2nq0I7erpdQkr3-15" target="mAn_lP2nq0I7erpdQkr3-1">
          <mxGeometry width="50" height="50" relative="1" as="geometry">
            <mxPoint x="230" y="630" as="sourcePoint" />
            <mxPoint x="390" y="480" as="targetPoint" />
          </mxGeometry>
        </mxCell>
        <mxCell id="mAn_lP2nq0I7erpdQkr3-26" value="" style="shape=stencil(lVjLUhwxDPyavapsyc8zIf9BFRC2QoAC8vr79GTLw1rDNMVtWdxrS+5uST7Yxcvd1dPNQcPL6/Pj95vfx+vXu4N9OageH+5uno+v+HSwy4Nd3D4+33x7fvz5cH36++lqWbl8+vH4a/mFPydcypLqgtLw9/RNE4v/v/h6Wn9/fDhfr9Ln9TFIJwDrUuIMyBIKAWTJboc+9nwfEEXnHTRJbvsArZLDDGhSEwEkMZ0AhjSQGBQ56TOgSSRHisi6TYBkkgIBFIlzllKXmAkAMcxHykmUpDWq1DIBSpDCjhSlzvdQqlR2pCg271BNIklrtA2gS2aAKtZmdhsln6pongFJEgPUkcQVkEXJTRtCTDMAV0nSCubk4nfInUjUBtXOYijkSGCOuh1Ab90HgDnZZSlIIgLK3SuuVkrvkoYgz6hRSdClDxdaAUEaIV/FvW7ZSnYA1dJsAsWkkB1ANRcD0qC2D+hB8mwCWaWRI3UdclkB0CDRdE8SogcYO1KWVj2gMED1bEUMFNCkz9RYfIkB+iatZfD3fRMIQYLbApoiNQtblJnfsD5WIBBEnW+uwD2JgpAmm4MA45XtkKU49mXq933DPgCM7RC9gnCkRjQKurqaBUEwY2rdW1+J0kiWWpPkahYunxxpATgF1fHNHsC1MzmPCrAXdHD85oUaac0uBpXANGq+ZkFydIfs7XsBsBiqhI3PKGNr8/aNoAvjEvxefVozOxLs2wXNewcAmuNSGN62B4hzDJAoq7vIUnMmYFwPnwbY6BTOShCruxCQM7IKLpHKjk4hzvdQMy0QqONhjgFlj8WA34uza6DssbSiLKvrf1BjyMXBtsIsIKSB1Sx4hJMoEh14O+PsvnMTyMEbWS/04tLq1Sug0eY7bXfo1L0tjSS+zWVr2Xu/c+1DYGdbMMmpea9caje5CAw17uYWibAJwjxdkVfWrtdRDdb1yrPkbQm9N/OxOLradT36K6K3MGbnVT1lVLCd9V7PgQ4PYVPT4cNshttUt0Kv2Db1NtKBbNMdpjRa2Pftxd8vhhuWz4iJc5ayfRBw8q8Ny7DPOFp9SpEEpkzktMymDZqzJh1J0rnaxvWFY1eY7gEk0hiWnMzXVimrrW5eJ8bbwJ4ZFRcB9dMUfRcWaBOW1Msm0KqGAdcN6dzpQEo3JsFdWbx5hPe2nuUT691LCR+qUvHNv44XrL31browOiFhvevkE3VFrG+ugaRvHljvWlp8wX/fdyF0/Pr0m+SH6/Hh7QH09nh/f3o/Pf+/fzDFV6fHVrv8Bw==);lineShape=1;sketch=0;rotation=-75;" vertex="1" parent="1">
          <mxGeometry x="152.06129822390702" y="650.0006744816842" width="27.9407508610758" height="23.139099462925515" as="geometry" />
        </mxCell>
        <mxCell id="mAn_lP2nq0I7erpdQkr3-27" value="" style="shape=stencil(lVjLUhwxDPyavapsyc8zIf9BFRC2QoAC8vr79GTLw1rDNMVtWdxrS+5uST7Yxcvd1dPNQcPL6/Pj95vfx+vXu4N9OageH+5uno+v+HSwy4Nd3D4+33x7fvz5cH36++lqWbl8+vH4a/mFPydcypLqgtLw9/RNE4v/v/h6Wn9/fDhfr9Ln9TFIJwDrUuIMyBIKAWTJboc+9nwfEEXnHTRJbvsArZLDDGhSEwEkMZ0AhjSQGBQ56TOgSSRHisi6TYBkkgIBFIlzllKXmAkAMcxHykmUpDWq1DIBSpDCjhSlzvdQqlR2pCg271BNIklrtA2gS2aAKtZmdhsln6pongFJEgPUkcQVkEXJTRtCTDMAV0nSCubk4nfInUjUBtXOYijkSGCOuh1Ab90HgDnZZSlIIgLK3SuuVkrvkoYgz6hRSdClDxdaAUEaIV/FvW7ZSnYA1dJsAsWkkB1ANRcD0qC2D+hB8mwCWaWRI3UdclkB0CDRdE8SogcYO1KWVj2gMED1bEUMFNCkz9RYfIkB+iatZfD3fRMIQYLbApoiNQtblJnfsD5WIBBEnW+uwD2JgpAmm4MA45XtkKU49mXq933DPgCM7RC9gnCkRjQKurqaBUEwY2rdW1+J0kiWWpPkahYunxxpATgF1fHNHsC1MzmPCrAXdHD85oUaac0uBpXANGq+ZkFydIfs7XsBsBiqhI3PKGNr8/aNoAvjEvxefVozOxLs2wXNewcAmuNSGN62B4hzDJAoq7vIUnMmYFwPnwbY6BTOShCruxCQM7IKLpHKjk4hzvdQMy0QqONhjgFlj8WA34uza6DssbSiLKvrf1BjyMXBtsIsIKSB1Sx4hJMoEh14O+PsvnMTyMEbWS/04tLq1Sug0eY7bXfo1L0tjSS+zWVr2Xu/c+1DYGdbMMmpea9caje5CAw17uYWibAJwjxdkVfWrtdRDdb1yrPkbQm9N/OxOLradT36K6K3MGbnVT1lVLCd9V7PgQ4PYVPT4cNshttUt0Kv2Db1NtKBbNMdpjRa2Pftxd8vhhuWz4iJc5ayfRBw8q8Ny7DPOFp9SpEEpkzktMymDZqzJh1J0rnaxvWFY1eY7gEk0hiWnMzXVimrrW5eJ8bbwJ4ZFRcB9dMUfRcWaBOW1Msm0KqGAdcN6dzpQEo3JsFdWbx5hPe2nuUT691LCR+qUvHNv44XrL31browOiFhvevkE3VFrG+ugaRvHljvWlp8wX/fdyF0/Pr0m+SH6/Hh7QH09nh/f3o/Pf+/fzDFV6fHVrv8Bw==);lineShape=1;sketch=0;rotation=-180;" vertex="1" parent="1">
          <mxGeometry x="782.061298223907" y="546.8606744816842" width="27.9407508610758" height="23.139099462925515" as="geometry" />
        </mxCell>
        <mxCell id="mAn_lP2nq0I7erpdQkr3-28" value="STATUE" style="rounded=0;whiteSpace=wrap;html=1;sketch=0;" vertex="1" parent="1">
          <mxGeometry x="280" y="710" width="80" height="40" as="geometry" />
        </mxCell>
        <mxCell id="mAn_lP2nq0I7erpdQkr3-29" value="SCULPTURE" style="rounded=0;whiteSpace=wrap;html=1;sketch=0;" vertex="1" parent="1">
          <mxGeometry x="-50" y="770" width="80" height="40" as="geometry" />
        </mxCell>
        <mxCell id="mAn_lP2nq0I7erpdQkr3-30" value="PAINTING" style="rounded=0;whiteSpace=wrap;html=1;sketch=0;" vertex="1" parent="1">
          <mxGeometry x="-140" y="650" width="80" height="40" as="geometry" />
        </mxCell>
        <mxCell id="mAn_lP2nq0I7erpdQkr3-31" value="OTHER" style="rounded=0;whiteSpace=wrap;html=1;sketch=0;" vertex="1" parent="1">
          <mxGeometry x="170" y="780" width="80" height="40" as="geometry" />
        </mxCell>
        <mxCell id="mAn_lP2nq0I7erpdQkr3-34" value="Style" style="ellipse;whiteSpace=wrap;html=1;sketch=0;" vertex="1" parent="1">
          <mxGeometry x="180" y="890" width="90" height="60" as="geometry" />
        </mxCell>
        <mxCell id="mAn_lP2nq0I7erpdQkr3-35" value="Type" style="ellipse;whiteSpace=wrap;html=1;sketch=0;" vertex="1" parent="1">
          <mxGeometry x="310" y="860" width="90" height="60" as="geometry" />
        </mxCell>
        <mxCell id="mAn_lP2nq0I7erpdQkr3-36" value="Style" style="ellipse;whiteSpace=wrap;html=1;sketch=0;" vertex="1" parent="1">
          <mxGeometry x="40" y="900" width="90" height="60" as="geometry" />
        </mxCell>
        <mxCell id="mAn_lP2nq0I7erpdQkr3-37" value="Weight" style="ellipse;whiteSpace=wrap;html=1;sketch=0;" vertex="1" parent="1">
          <mxGeometry x="-40" y="950" width="90" height="60" as="geometry" />
        </mxCell>
        <mxCell id="mAn_lP2nq0I7erpdQkr3-38" value="Height" style="ellipse;whiteSpace=wrap;html=1;sketch=0;" vertex="1" parent="1">
          <mxGeometry x="-145" y="950" width="90" height="60" as="geometry" />
        </mxCell>
        <mxCell id="mAn_lP2nq0I7erpdQkr3-39" value="Material" style="ellipse;whiteSpace=wrap;html=1;sketch=0;" vertex="1" parent="1">
          <mxGeometry x="-210" y="880" width="90" height="60" as="geometry" />
        </mxCell>
        <mxCell id="mAn_lP2nq0I7erpdQkr3-40" value="&lt;div&gt;Style&lt;/div&gt;" style="ellipse;whiteSpace=wrap;html=1;sketch=0;" vertex="1" parent="1">
          <mxGeometry x="-300" y="780" width="90" height="60" as="geometry" />
        </mxCell>
        <mxCell id="mAn_lP2nq0I7erpdQkr3-41" value="DrawnOn" style="ellipse;whiteSpace=wrap;html=1;sketch=0;" vertex="1" parent="1">
          <mxGeometry x="-310" y="680" width="90" height="60" as="geometry" />
        </mxCell>
        <mxCell id="mAn_lP2nq0I7erpdQkr3-42" value="PaintType" style="ellipse;whiteSpace=wrap;html=1;sketch=0;" vertex="1" parent="1">
          <mxGeometry x="-310" y="570" width="90" height="60" as="geometry" />
        </mxCell>
        <mxCell id="mAn_lP2nq0I7erpdQkr3-43" value="Style" style="ellipse;whiteSpace=wrap;html=1;sketch=0;" vertex="1" parent="1">
          <mxGeometry x="425" y="646.2" width="90" height="60" as="geometry" />
        </mxCell>
        <mxCell id="mAn_lP2nq0I7erpdQkr3-44" value="Weight" style="ellipse;whiteSpace=wrap;html=1;sketch=0;" vertex="1" parent="1">
          <mxGeometry x="460" y="730" width="90" height="60" as="geometry" />
        </mxCell>
        <mxCell id="mAn_lP2nq0I7erpdQkr3-45" value="Height" style="ellipse;whiteSpace=wrap;html=1;sketch=0;" vertex="1" parent="1">
          <mxGeometry x="450" y="830" width="90" height="60" as="geometry" />
        </mxCell>
        <mxCell id="mAn_lP2nq0I7erpdQkr3-46" value="Material" style="ellipse;whiteSpace=wrap;html=1;sketch=0;" vertex="1" parent="1">
          <mxGeometry x="320" y="570" width="90" height="60" as="geometry" />
        </mxCell>
        <mxCell id="mAn_lP2nq0I7erpdQkr3-48" value="" style="endArrow=none;html=1;rounded=0;entryX=0;entryY=1;entryDx=0;entryDy=0;exitX=1;exitY=0;exitDx=0;exitDy=0;" edge="1" parent="1" source="mAn_lP2nq0I7erpdQkr3-30" target="mAn_lP2nq0I7erpdQkr3-15">
          <mxGeometry width="50" height="50" relative="1" as="geometry">
            <mxPoint x="60" y="790" as="sourcePoint" />
            <mxPoint x="110" y="740" as="targetPoint" />
          </mxGeometry>
        </mxCell>
        <mxCell id="mAn_lP2nq0I7erpdQkr3-49" value="" style="endArrow=none;html=1;rounded=0;entryX=0.5;entryY=1;entryDx=0;entryDy=0;exitX=1;exitY=0;exitDx=0;exitDy=0;" edge="1" parent="1" source="mAn_lP2nq0I7erpdQkr3-29" target="mAn_lP2nq0I7erpdQkr3-15">
          <mxGeometry width="50" height="50" relative="1" as="geometry">
            <mxPoint x="70.00000000000023" y="800" as="sourcePoint" />
            <mxPoint x="120.00000000000023" y="750" as="targetPoint" />
          </mxGeometry>
        </mxCell>
        <mxCell id="mAn_lP2nq0I7erpdQkr3-50" value="" style="endArrow=none;html=1;rounded=0;entryX=1;entryY=1;entryDx=0;entryDy=0;exitX=0.5;exitY=0;exitDx=0;exitDy=0;" edge="1" parent="1" source="mAn_lP2nq0I7erpdQkr3-31" target="mAn_lP2nq0I7erpdQkr3-15">
          <mxGeometry width="50" height="50" relative="1" as="geometry">
            <mxPoint x="80.00000000000023" y="810" as="sourcePoint" />
            <mxPoint x="130.00000000000023" y="760" as="targetPoint" />
          </mxGeometry>
        </mxCell>
        <mxCell id="mAn_lP2nq0I7erpdQkr3-51" value="" style="endArrow=none;html=1;rounded=0;entryX=1;entryY=0.5;entryDx=0;entryDy=0;exitX=0;exitY=0;exitDx=0;exitDy=0;" edge="1" parent="1" source="mAn_lP2nq0I7erpdQkr3-28" target="mAn_lP2nq0I7erpdQkr3-15">
          <mxGeometry width="50" height="50" relative="1" as="geometry">
            <mxPoint x="90.00000000000023" y="820" as="sourcePoint" />
            <mxPoint x="140.00000000000023" y="770" as="targetPoint" />
          </mxGeometry>
        </mxCell>
        <mxCell id="mAn_lP2nq0I7erpdQkr3-52" value="" style="endArrow=none;html=1;rounded=0;entryX=0.25;entryY=1;entryDx=0;entryDy=0;" edge="1" parent="1" source="mAn_lP2nq0I7erpdQkr3-40" target="mAn_lP2nq0I7erpdQkr3-30">
          <mxGeometry width="50" height="50" relative="1" as="geometry">
            <mxPoint x="-209.99999999999977" y="770" as="sourcePoint" />
            <mxPoint x="-159.99999999999977" y="720" as="targetPoint" />
          </mxGeometry>
        </mxCell>
        <mxCell id="mAn_lP2nq0I7erpdQkr3-53" value="" style="endArrow=none;html=1;rounded=0;entryX=0.25;entryY=1;entryDx=0;entryDy=0;" edge="1" parent="1" source="mAn_lP2nq0I7erpdQkr3-39" target="mAn_lP2nq0I7erpdQkr3-29">
          <mxGeometry width="50" height="50" relative="1" as="geometry">
            <mxPoint x="-104.99999999999977" y="880" as="sourcePoint" />
            <mxPoint x="-54.99999999999977" y="830" as="targetPoint" />
          </mxGeometry>
        </mxCell>
        <mxCell id="mAn_lP2nq0I7erpdQkr3-54" value="" style="endArrow=none;html=1;rounded=0;exitX=1.011;exitY=0.884;exitDx=0;exitDy=0;exitPerimeter=0;" edge="1" parent="1" source="mAn_lP2nq0I7erpdQkr3-28" target="mAn_lP2nq0I7erpdQkr3-44">
          <mxGeometry width="50" height="50" relative="1" as="geometry">
            <mxPoint x="450.0000000000002" y="750" as="sourcePoint" />
            <mxPoint x="500.0000000000002" y="700" as="targetPoint" />
          </mxGeometry>
        </mxCell>
        <mxCell id="mAn_lP2nq0I7erpdQkr3-55" value="" style="endArrow=none;html=1;rounded=0;entryX=0;entryY=0;entryDx=0;entryDy=0;exitX=0.995;exitY=0.369;exitDx=0;exitDy=0;exitPerimeter=0;" edge="1" parent="1" source="mAn_lP2nq0I7erpdQkr3-28" target="mAn_lP2nq0I7erpdQkr3-43">
          <mxGeometry width="50" height="50" relative="1" as="geometry">
            <mxPoint x="417.9400000000002" y="690" as="sourcePoint" />
            <mxPoint x="467.9400000000002" y="640" as="targetPoint" />
          </mxGeometry>
        </mxCell>
        <mxCell id="mAn_lP2nq0I7erpdQkr3-56" value="" style="endArrow=none;html=1;rounded=0;" edge="1" parent="1" source="mAn_lP2nq0I7erpdQkr3-34" target="mAn_lP2nq0I7erpdQkr3-31">
          <mxGeometry width="50" height="50" relative="1" as="geometry">
            <mxPoint x="140.00000000000023" y="870" as="sourcePoint" />
            <mxPoint x="190.00000000000023" y="820" as="targetPoint" />
          </mxGeometry>
        </mxCell>
        <mxCell id="mAn_lP2nq0I7erpdQkr3-57" value="" style="endArrow=none;html=1;rounded=0;entryX=0.816;entryY=0.978;entryDx=0;entryDy=0;entryPerimeter=0;" edge="1" parent="1" source="mAn_lP2nq0I7erpdQkr3-35" target="mAn_lP2nq0I7erpdQkr3-31">
          <mxGeometry width="50" height="50" relative="1" as="geometry">
            <mxPoint x="270.0000000000002" y="870" as="sourcePoint" />
            <mxPoint x="320.0000000000002" y="820" as="targetPoint" />
          </mxGeometry>
        </mxCell>
        <mxCell id="mAn_lP2nq0I7erpdQkr3-58" value="" style="endArrow=none;html=1;rounded=0;" edge="1" parent="1" source="mAn_lP2nq0I7erpdQkr3-28" target="mAn_lP2nq0I7erpdQkr3-46">
          <mxGeometry width="50" height="50" relative="1" as="geometry">
            <mxPoint x="411.0000000000002" y="690" as="sourcePoint" />
            <mxPoint x="461.0000000000002" y="640" as="targetPoint" />
          </mxGeometry>
        </mxCell>
        <mxCell id="mAn_lP2nq0I7erpdQkr3-59" value="" style="endArrow=none;html=1;rounded=0;entryX=0;entryY=0.75;entryDx=0;entryDy=0;" edge="1" parent="1" source="mAn_lP2nq0I7erpdQkr3-41" target="mAn_lP2nq0I7erpdQkr3-30">
          <mxGeometry width="50" height="50" relative="1" as="geometry">
            <mxPoint x="-179.99999999999977" y="596.2" as="sourcePoint" />
            <mxPoint x="-129.99999999999977" y="546.2" as="targetPoint" />
          </mxGeometry>
        </mxCell>
        <mxCell id="mAn_lP2nq0I7erpdQkr3-60" value="" style="endArrow=none;html=1;rounded=0;entryX=0;entryY=0;entryDx=0;entryDy=0;" edge="1" parent="1" source="mAn_lP2nq0I7erpdQkr3-42" target="mAn_lP2nq0I7erpdQkr3-30">
          <mxGeometry width="50" height="50" relative="1" as="geometry">
            <mxPoint x="-169.99999999999977" y="606.2" as="sourcePoint" />
            <mxPoint x="-119.99999999999977" y="556.2" as="targetPoint" />
          </mxGeometry>
        </mxCell>
        <mxCell id="mAn_lP2nq0I7erpdQkr3-61" value="" style="endArrow=none;html=1;rounded=0;entryX=0.628;entryY=1.025;entryDx=0;entryDy=0;entryPerimeter=0;" edge="1" parent="1" source="mAn_lP2nq0I7erpdQkr3-37" target="mAn_lP2nq0I7erpdQkr3-29">
          <mxGeometry width="50" height="50" relative="1" as="geometry">
            <mxPoint x="10.000000000000227" y="910" as="sourcePoint" />
            <mxPoint x="60.00000000000023" y="860" as="targetPoint" />
          </mxGeometry>
        </mxCell>
        <mxCell id="mAn_lP2nq0I7erpdQkr3-62" value="" style="endArrow=none;html=1;rounded=0;" edge="1" parent="1" source="mAn_lP2nq0I7erpdQkr3-38" target="mAn_lP2nq0I7erpdQkr3-29">
          <mxGeometry width="50" height="50" relative="1" as="geometry">
            <mxPoint x="-84.99999999999977" y="900" as="sourcePoint" />
            <mxPoint x="-34.99999999999977" y="850" as="targetPoint" />
          </mxGeometry>
        </mxCell>
        <mxCell id="mAn_lP2nq0I7erpdQkr3-63" value="" style="endArrow=none;html=1;rounded=0;entryX=0.902;entryY=0.994;entryDx=0;entryDy=0;entryPerimeter=0;" edge="1" parent="1" source="mAn_lP2nq0I7erpdQkr3-36" target="mAn_lP2nq0I7erpdQkr3-29">
          <mxGeometry width="50" height="50" relative="1" as="geometry">
            <mxPoint x="-74.99999999999977" y="910" as="sourcePoint" />
            <mxPoint x="-24.999999999999773" y="860" as="targetPoint" />
          </mxGeometry>
        </mxCell>
        <mxCell id="mAn_lP2nq0I7erpdQkr3-65" value="" style="endArrow=none;html=1;rounded=0;" edge="1" parent="1" source="mAn_lP2nq0I7erpdQkr3-45" target="mAn_lP2nq0I7erpdQkr3-28">
          <mxGeometry width="50" height="50" relative="1" as="geometry">
            <mxPoint x="417.9400000000002" y="705" as="sourcePoint" />
            <mxPoint x="467.9400000000002" y="655" as="targetPoint" />
          </mxGeometry>
        </mxCell>
        <mxCell id="mAn_lP2nq0I7erpdQkr3-66" value="" style="shape=stencil(lVjLUhwxDPyavapsyc8zIf9BFRC2QoAC8vr79GTLw1rDNMVtWdxrS+5uST7Yxcvd1dPNQcPL6/Pj95vfx+vXu4N9OageH+5uno+v+HSwy4Nd3D4+33x7fvz5cH36++lqWbl8+vH4a/mFPydcypLqgtLw9/RNE4v/v/h6Wn9/fDhfr9Ln9TFIJwDrUuIMyBIKAWTJboc+9nwfEEXnHTRJbvsArZLDDGhSEwEkMZ0AhjSQGBQ56TOgSSRHisi6TYBkkgIBFIlzllKXmAkAMcxHykmUpDWq1DIBSpDCjhSlzvdQqlR2pCg271BNIklrtA2gS2aAKtZmdhsln6pongFJEgPUkcQVkEXJTRtCTDMAV0nSCubk4nfInUjUBtXOYijkSGCOuh1Ab90HgDnZZSlIIgLK3SuuVkrvkoYgz6hRSdClDxdaAUEaIV/FvW7ZSnYA1dJsAsWkkB1ANRcD0qC2D+hB8mwCWaWRI3UdclkB0CDRdE8SogcYO1KWVj2gMED1bEUMFNCkz9RYfIkB+iatZfD3fRMIQYLbApoiNQtblJnfsD5WIBBEnW+uwD2JgpAmm4MA45XtkKU49mXq933DPgCM7RC9gnCkRjQKurqaBUEwY2rdW1+J0kiWWpPkahYunxxpATgF1fHNHsC1MzmPCrAXdHD85oUaac0uBpXANGq+ZkFydIfs7XsBsBiqhI3PKGNr8/aNoAvjEvxefVozOxLs2wXNewcAmuNSGN62B4hzDJAoq7vIUnMmYFwPnwbY6BTOShCruxCQM7IKLpHKjk4hzvdQMy0QqONhjgFlj8WA34uza6DssbSiLKvrf1BjyMXBtsIsIKSB1Sx4hJMoEh14O+PsvnMTyMEbWS/04tLq1Sug0eY7bXfo1L0tjSS+zWVr2Xu/c+1DYGdbMMmpea9caje5CAw17uYWibAJwjxdkVfWrtdRDdb1yrPkbQm9N/OxOLradT36K6K3MGbnVT1lVLCd9V7PgQ4PYVPT4cNshttUt0Kv2Db1NtKBbNMdpjRa2Pftxd8vhhuWz4iJc5ayfRBw8q8Ny7DPOFp9SpEEpkzktMymDZqzJh1J0rnaxvWFY1eY7gEk0hiWnMzXVimrrW5eJ8bbwJ4ZFRcB9dMUfRcWaBOW1Msm0KqGAdcN6dzpQEo3JsFdWbx5hPe2nuUT691LCR+qUvHNv44XrL31browOiFhvevkE3VFrG+ugaRvHljvWlp8wX/fdyF0/Pr0m+SH6/Hh7QH09nh/f3o/Pf+/fzDFV6fHVrv8Bw==);lineShape=1;sketch=0;rotation=-15;" vertex="1" parent="1">
          <mxGeometry x="71.03129822390702" y="650.0006744816842" width="27.9407508610758" height="23.139099462925515" as="geometry" />
        </mxCell>
        <mxCell id="mAn_lP2nq0I7erpdQkr3-67" value="" style="shape=stencil(lVjLUhwxDPyavapsyc8zIf9BFRC2QoAC8vr79GTLw1rDNMVtWdxrS+5uST7Yxcvd1dPNQcPL6/Pj95vfx+vXu4N9OageH+5uno+v+HSwy4Nd3D4+33x7fvz5cH36++lqWbl8+vH4a/mFPydcypLqgtLw9/RNE4v/v/h6Wn9/fDhfr9Ln9TFIJwDrUuIMyBIKAWTJboc+9nwfEEXnHTRJbvsArZLDDGhSEwEkMZ0AhjSQGBQ56TOgSSRHisi6TYBkkgIBFIlzllKXmAkAMcxHykmUpDWq1DIBSpDCjhSlzvdQqlR2pCg271BNIklrtA2gS2aAKtZmdhsln6pongFJEgPUkcQVkEXJTRtCTDMAV0nSCubk4nfInUjUBtXOYijkSGCOuh1Ab90HgDnZZSlIIgLK3SuuVkrvkoYgz6hRSdClDxdaAUEaIV/FvW7ZSnYA1dJsAsWkkB1ANRcD0qC2D+hB8mwCWaWRI3UdclkB0CDRdE8SogcYO1KWVj2gMED1bEUMFNCkz9RYfIkB+iatZfD3fRMIQYLbApoiNQtblJnfsD5WIBBEnW+uwD2JgpAmm4MA45XtkKU49mXq933DPgCM7RC9gnCkRjQKurqaBUEwY2rdW1+J0kiWWpPkahYunxxpATgF1fHNHsC1MzmPCrAXdHD85oUaac0uBpXANGq+ZkFydIfs7XsBsBiqhI3PKGNr8/aNoAvjEvxefVozOxLs2wXNewcAmuNSGN62B4hzDJAoq7vIUnMmYFwPnwbY6BTOShCruxCQM7IKLpHKjk4hzvdQMy0QqONhjgFlj8WA34uza6DssbSiLKvrf1BjyMXBtsIsIKSB1Sx4hJMoEh14O+PsvnMTyMEbWS/04tLq1Sug0eY7bXfo1L0tjSS+zWVr2Xu/c+1DYGdbMMmpea9caje5CAw17uYWibAJwjxdkVfWrtdRDdb1yrPkbQm9N/OxOLradT36K6K3MGbnVT1lVLCd9V7PgQ4PYVPT4cNshttUt0Kv2Db1NtKBbNMdpjRa2Pftxd8vhhuWz4iJc5ayfRBw8q8Ny7DPOFp9SpEEpkzktMymDZqzJh1J0rnaxvWFY1eY7gEk0hiWnMzXVimrrW5eJ8bbwJ4ZFRcB9dMUfRcWaBOW1Msm0KqGAdcN6dzpQEo3JsFdWbx5hPe2nuUT691LCR+qUvHNv44XrL31browOiFhvevkE3VFrG+ugaRvHljvWlp8wX/fdyF0/Pr0m+SH6/Hh7QH09nh/f3o/Pf+/fzDFV6fHVrv8Bw==);lineShape=1;sketch=0;rotation=15;" vertex="1" parent="1">
          <mxGeometry x="12.061298223907015" y="599.9206744816843" width="27.9407508610758" height="23.139099462925515" as="geometry" />
        </mxCell>
        <mxCell id="mAn_lP2nq0I7erpdQkr3-68" value="" style="shape=stencil(lVjLUhwxDPyavapsyc8zIf9BFRC2QoAC8vr79GTLw1rDNMVtWdxrS+5uST7Yxcvd1dPNQcPL6/Pj95vfx+vXu4N9OageH+5uno+v+HSwy4Nd3D4+33x7fvz5cH36++lqWbl8+vH4a/mFPydcypLqgtLw9/RNE4v/v/h6Wn9/fDhfr9Ln9TFIJwDrUuIMyBIKAWTJboc+9nwfEEXnHTRJbvsArZLDDGhSEwEkMZ0AhjSQGBQ56TOgSSRHisi6TYBkkgIBFIlzllKXmAkAMcxHykmUpDWq1DIBSpDCjhSlzvdQqlR2pCg271BNIklrtA2gS2aAKtZmdhsln6pongFJEgPUkcQVkEXJTRtCTDMAV0nSCubk4nfInUjUBtXOYijkSGCOuh1Ab90HgDnZZSlIIgLK3SuuVkrvkoYgz6hRSdClDxdaAUEaIV/FvW7ZSnYA1dJsAsWkkB1ANRcD0qC2D+hB8mwCWaWRI3UdclkB0CDRdE8SogcYO1KWVj2gMED1bEUMFNCkz9RYfIkB+iatZfD3fRMIQYLbApoiNQtblJnfsD5WIBBEnW+uwD2JgpAmm4MA45XtkKU49mXq933DPgCM7RC9gnCkRjQKurqaBUEwY2rdW1+J0kiWWpPkahYunxxpATgF1fHNHsC1MzmPCrAXdHD85oUaac0uBpXANGq+ZkFydIfs7XsBsBiqhI3PKGNr8/aNoAvjEvxefVozOxLs2wXNewcAmuNSGN62B4hzDJAoq7vIUnMmYFwPnwbY6BTOShCruxCQM7IKLpHKjk4hzvdQMy0QqONhjgFlj8WA34uza6DssbSiLKvrf1BjyMXBtsIsIKSB1Sx4hJMoEh14O+PsvnMTyMEbWS/04tLq1Sug0eY7bXfo1L0tjSS+zWVr2Xu/c+1DYGdbMMmpea9caje5CAw17uYWibAJwjxdkVfWrtdRDdb1yrPkbQm9N/OxOLradT36K6K3MGbnVT1lVLCd9V7PgQ4PYVPT4cNshttUt0Kv2Db1NtKBbNMdpjRa2Pftxd8vhhuWz4iJc5ayfRBw8q8Ny7DPOFp9SpEEpkzktMymDZqzJh1J0rnaxvWFY1eY7gEk0hiWnMzXVimrrW5eJ8bbwJ4ZFRcB9dMUfRcWaBOW1Msm0KqGAdcN6dzpQEo3JsFdWbx5hPe2nuUT691LCR+qUvHNv44XrL31browOiFhvevkE3VFrG+ugaRvHljvWlp8wX/fdyF0/Pr0m+SH6/Hh7QH09nh/f3o/Pf+/fzDFV6fHVrv8Bw==);lineShape=1;sketch=0;rotation=-90;" vertex="1" parent="1">
          <mxGeometry x="196.03129822390702" y="623.0606744816841" width="27.9407508610758" height="23.139099462925515" as="geometry" />
        </mxCell>
        <mxCell id="mAn_lP2nq0I7erpdQkr3-70" value="Epoch" style="ellipse;whiteSpace=wrap;html=1;" vertex="1" parent="1">
          <mxGeometry x="400" y="180" width="90" height="60" as="geometry" />
        </mxCell>
        <mxCell id="mAn_lP2nq0I7erpdQkr3-71" value="Origin" style="ellipse;whiteSpace=wrap;html=1;" vertex="1" parent="1">
          <mxGeometry x="520" y="190" width="90" height="60" as="geometry" />
        </mxCell>
        <mxCell id="mAn_lP2nq0I7erpdQkr3-72" value="" style="endArrow=none;html=1;rounded=0;exitX=0.5;exitY=0;exitDx=0;exitDy=0;" edge="1" parent="1" source="mAn_lP2nq0I7erpdQkr3-1" target="mAn_lP2nq0I7erpdQkr3-70">
          <mxGeometry width="50" height="50" relative="1" as="geometry">
            <mxPoint x="450" y="490" as="sourcePoint" />
            <mxPoint x="500" y="440" as="targetPoint" />
          </mxGeometry>
        </mxCell>
        <mxCell id="mAn_lP2nq0I7erpdQkr3-73" value="" style="endArrow=none;html=1;rounded=0;exitX=0.75;exitY=0;exitDx=0;exitDy=0;" edge="1" parent="1" source="mAn_lP2nq0I7erpdQkr3-1" target="mAn_lP2nq0I7erpdQkr3-71">
          <mxGeometry width="50" height="50" relative="1" as="geometry">
            <mxPoint x="460" y="500" as="sourcePoint" />
            <mxPoint x="510" y="450" as="targetPoint" />
          </mxGeometry>
        </mxCell>
        <mxCell id="mAn_lP2nq0I7erpdQkr3-77" value="" style="endArrow=none;html=1;rounded=0;" edge="1" parent="1" source="mAn_lP2nq0I7erpdQkr3-16" target="mAn_lP2nq0I7erpdQkr3-1">
          <mxGeometry width="50" height="50" relative="1" as="geometry">
            <mxPoint x="530" y="630" as="sourcePoint" />
            <mxPoint x="580" y="580" as="targetPoint" />
          </mxGeometry>
        </mxCell>
        <mxCell id="mAn_lP2nq0I7erpdQkr3-78" value="BORROWED" style="rounded=0;whiteSpace=wrap;html=1;sketch=0;" vertex="1" parent="1">
          <mxGeometry x="915" y="720" width="80" height="40" as="geometry" />
        </mxCell>
        <mxCell id="mAn_lP2nq0I7erpdQkr3-79" value="&lt;div&gt;PERMANENT_COLLECTION&lt;/div&gt;" style="rounded=0;whiteSpace=wrap;html=1;sketch=0;" vertex="1" parent="1">
          <mxGeometry x="870" y="490.00000000000006" width="170" height="40" as="geometry" />
        </mxCell>
        <mxCell id="mAn_lP2nq0I7erpdQkr3-81" value="DateAcquired" style="ellipse;whiteSpace=wrap;html=1;" vertex="1" parent="1">
          <mxGeometry x="825" y="290" width="90" height="60" as="geometry" />
        </mxCell>
        <mxCell id="mAn_lP2nq0I7erpdQkr3-82" value="Cost" style="ellipse;whiteSpace=wrap;html=1;" vertex="1" parent="1">
          <mxGeometry x="1150" y="390" width="90" height="60" as="geometry" />
        </mxCell>
        <mxCell id="mAn_lP2nq0I7erpdQkr3-83" value="OnDisplay" style="ellipse;whiteSpace=wrap;html=1;" vertex="1" parent="1">
          <mxGeometry x="990" y="290" width="90" height="60" as="geometry" />
        </mxCell>
        <mxCell id="mAn_lP2nq0I7erpdQkr3-85" value="" style="endArrow=none;html=1;rounded=0;" edge="1" parent="1" source="mAn_lP2nq0I7erpdQkr3-79" target="mAn_lP2nq0I7erpdQkr3-83">
          <mxGeometry width="50" height="50" relative="1" as="geometry">
            <mxPoint x="940" y="560" as="sourcePoint" />
            <mxPoint x="990" y="510" as="targetPoint" />
          </mxGeometry>
        </mxCell>
        <mxCell id="mAn_lP2nq0I7erpdQkr3-86" value="" style="endArrow=none;html=1;rounded=0;entryX=0;entryY=1;entryDx=0;entryDy=0;" edge="1" parent="1" source="mAn_lP2nq0I7erpdQkr3-79" target="mAn_lP2nq0I7erpdQkr3-82">
          <mxGeometry width="50" height="50" relative="1" as="geometry">
            <mxPoint x="950" y="570" as="sourcePoint" />
            <mxPoint x="1000" y="520" as="targetPoint" />
          </mxGeometry>
        </mxCell>
        <mxCell id="mAn_lP2nq0I7erpdQkr3-87" value="" style="endArrow=none;html=1;rounded=0;entryX=0.647;entryY=1.001;entryDx=0;entryDy=0;entryPerimeter=0;" edge="1" parent="1" source="mAn_lP2nq0I7erpdQkr3-79" target="mAn_lP2nq0I7erpdQkr3-81">
          <mxGeometry width="50" height="50" relative="1" as="geometry">
            <mxPoint x="960" y="580" as="sourcePoint" />
            <mxPoint x="1010" y="530" as="targetPoint" />
          </mxGeometry>
        </mxCell>
        <mxCell id="mAn_lP2nq0I7erpdQkr3-88" value="BorrowedFrom" style="ellipse;whiteSpace=wrap;html=1;" vertex="1" parent="1">
          <mxGeometry x="1100" y="590" width="90" height="60" as="geometry" />
        </mxCell>
        <mxCell id="mAn_lP2nq0I7erpdQkr3-89" value="DateReturned" style="ellipse;whiteSpace=wrap;html=1;" vertex="1" parent="1">
          <mxGeometry x="1100" y="710" width="90" height="60" as="geometry" />
        </mxCell>
        <mxCell id="mAn_lP2nq0I7erpdQkr3-90" value="DateBorrowed" style="ellipse;whiteSpace=wrap;html=1;" vertex="1" parent="1">
          <mxGeometry x="1100" y="820" width="90" height="60" as="geometry" />
        </mxCell>
        <mxCell id="mAn_lP2nq0I7erpdQkr3-91" value="" style="endArrow=none;html=1;rounded=0;exitX=0.75;exitY=1;exitDx=0;exitDy=0;" edge="1" parent="1" source="mAn_lP2nq0I7erpdQkr3-78" target="mAn_lP2nq0I7erpdQkr3-90">
          <mxGeometry width="50" height="50" relative="1" as="geometry">
            <mxPoint x="900" y="750" as="sourcePoint" />
            <mxPoint x="950" y="700" as="targetPoint" />
          </mxGeometry>
        </mxCell>
        <mxCell id="mAn_lP2nq0I7erpdQkr3-92" value="" style="endArrow=none;html=1;rounded=0;" edge="1" parent="1" source="mAn_lP2nq0I7erpdQkr3-78" target="mAn_lP2nq0I7erpdQkr3-89">
          <mxGeometry width="50" height="50" relative="1" as="geometry">
            <mxPoint x="910" y="759.9999999999998" as="sourcePoint" />
            <mxPoint x="960" y="710.0000000000002" as="targetPoint" />
          </mxGeometry>
        </mxCell>
        <mxCell id="mAn_lP2nq0I7erpdQkr3-93" value="" style="endArrow=none;html=1;rounded=0;exitX=0.75;exitY=0;exitDx=0;exitDy=0;" edge="1" parent="1" source="mAn_lP2nq0I7erpdQkr3-78" target="mAn_lP2nq0I7erpdQkr3-88">
          <mxGeometry width="50" height="50" relative="1" as="geometry">
            <mxPoint x="920" y="769.9999999999998" as="sourcePoint" />
            <mxPoint x="970" y="720.0000000000002" as="targetPoint" />
          </mxGeometry>
        </mxCell>
        <mxCell id="mAn_lP2nq0I7erpdQkr3-94" value="" style="endArrow=none;html=1;rounded=0;entryX=0;entryY=0.5;entryDx=0;entryDy=0;exitX=1;exitY=0.5;exitDx=0;exitDy=0;" edge="1" parent="1" source="mAn_lP2nq0I7erpdQkr3-16" target="mAn_lP2nq0I7erpdQkr3-79">
          <mxGeometry width="50" height="50" relative="1" as="geometry">
            <mxPoint x="760" y="750" as="sourcePoint" />
            <mxPoint x="810" y="700" as="targetPoint" />
          </mxGeometry>
        </mxCell>
        <mxCell id="mAn_lP2nq0I7erpdQkr3-95" value="" style="endArrow=none;html=1;rounded=0;exitX=1;exitY=1;exitDx=0;exitDy=0;" edge="1" parent="1" source="mAn_lP2nq0I7erpdQkr3-16" target="mAn_lP2nq0I7erpdQkr3-78">
          <mxGeometry width="50" height="50" relative="1" as="geometry">
            <mxPoint x="770" y="759.9999999999998" as="sourcePoint" />
            <mxPoint x="820" y="710.0000000000002" as="targetPoint" />
          </mxGeometry>
        </mxCell>
        <mxCell id="mAn_lP2nq0I7erpdQkr3-96" value="" style="shape=stencil(lVjLUhwxDPyavapsyc8zIf9BFRC2QoAC8vr79GTLw1rDNMVtWdxrS+5uST7Yxcvd1dPNQcPL6/Pj95vfx+vXu4N9OageH+5uno+v+HSwy4Nd3D4+33x7fvz5cH36++lqWbl8+vH4a/mFPydcypLqgtLw9/RNE4v/v/h6Wn9/fDhfr9Ln9TFIJwDrUuIMyBIKAWTJboc+9nwfEEXnHTRJbvsArZLDDGhSEwEkMZ0AhjSQGBQ56TOgSSRHisi6TYBkkgIBFIlzllKXmAkAMcxHykmUpDWq1DIBSpDCjhSlzvdQqlR2pCg271BNIklrtA2gS2aAKtZmdhsln6pongFJEgPUkcQVkEXJTRtCTDMAV0nSCubk4nfInUjUBtXOYijkSGCOuh1Ab90HgDnZZSlIIgLK3SuuVkrvkoYgz6hRSdClDxdaAUEaIV/FvW7ZSnYA1dJsAsWkkB1ANRcD0qC2D+hB8mwCWaWRI3UdclkB0CDRdE8SogcYO1KWVj2gMED1bEUMFNCkz9RYfIkB+iatZfD3fRMIQYLbApoiNQtblJnfsD5WIBBEnW+uwD2JgpAmm4MA45XtkKU49mXq933DPgCM7RC9gnCkRjQKurqaBUEwY2rdW1+J0kiWWpPkahYunxxpATgF1fHNHsC1MzmPCrAXdHD85oUaac0uBpXANGq+ZkFydIfs7XsBsBiqhI3PKGNr8/aNoAvjEvxefVozOxLs2wXNewcAmuNSGN62B4hzDJAoq7vIUnMmYFwPnwbY6BTOShCruxCQM7IKLpHKjk4hzvdQMy0QqONhjgFlj8WA34uza6DssbSiLKvrf1BjyMXBtsIsIKSB1Sx4hJMoEh14O+PsvnMTyMEbWS/04tLq1Sug0eY7bXfo1L0tjSS+zWVr2Xu/c+1DYGdbMMmpea9caje5CAw17uYWibAJwjxdkVfWrtdRDdb1yrPkbQm9N/OxOLradT36K6K3MGbnVT1lVLCd9V7PgQ4PYVPT4cNshttUt0Kv2Db1NtKBbNMdpjRa2Pftxd8vhhuWz4iJc5ayfRBw8q8Ny7DPOFp9SpEEpkzktMymDZqzJh1J0rnaxvWFY1eY7gEk0hiWnMzXVimrrW5eJ8bbwJ4ZFRcB9dMUfRcWaBOW1Msm0KqGAdcN6dzpQEo3JsFdWbx5hPe2nuUT691LCR+qUvHNv44XrL31browOiFhvevkE3VFrG+ugaRvHljvWlp8wX/fdyF0/Pr0m+SH6/Hh7QH09nh/f3o/Pf+/fzDFV6fHVrv8Bw==);lineShape=1;sketch=0;rotation=-105;" vertex="1" parent="1">
          <mxGeometry x="810.001298223907" y="650.0006744816842" width="27.9407508610758" height="23.139099462925515" as="geometry" />
        </mxCell>
        <mxCell id="mAn_lP2nq0I7erpdQkr3-98" value="ARTIST" style="rounded=0;whiteSpace=wrap;html=1;" vertex="1" parent="1">
          <mxGeometry x="850" y="60" width="80" height="40" as="geometry" />
        </mxCell>
        <mxCell id="mAn_lP2nq0I7erpdQkr3-99" value="EXHIBITION" style="rounded=0;whiteSpace=wrap;html=1;" vertex="1" parent="1">
          <mxGeometry x="-90" y="220" width="80" height="40" as="geometry" />
        </mxCell>
        <mxCell id="mAn_lP2nq0I7erpdQkr3-100" value="EndDate" style="ellipse;whiteSpace=wrap;html=1;" vertex="1" parent="1">
          <mxGeometry x="-260" y="100" width="90" height="60" as="geometry" />
        </mxCell>
        <mxCell id="mAn_lP2nq0I7erpdQkr3-101" value="DateBorn" style="ellipse;whiteSpace=wrap;html=1;" vertex="1" parent="1">
          <mxGeometry x="-270" y="200" width="90" height="60" as="geometry" />
        </mxCell>
        <mxCell id="mAn_lP2nq0I7erpdQkr3-102" value="Name" style="ellipse;whiteSpace=wrap;html=1;" vertex="1" parent="1">
          <mxGeometry x="-100" y="40" width="90" height="60" as="geometry" />
        </mxCell>
        <mxCell id="mAn_lP2nq0I7erpdQkr3-103" value="" style="endArrow=none;html=1;rounded=0;entryX=1;entryY=1;entryDx=0;entryDy=0;exitX=0;exitY=0.25;exitDx=0;exitDy=0;" edge="1" parent="1" source="mAn_lP2nq0I7erpdQkr3-99" target="mAn_lP2nq0I7erpdQkr3-100">
          <mxGeometry width="50" height="50" relative="1" as="geometry">
            <mxPoint x="80" y="420" as="sourcePoint" />
            <mxPoint x="130" y="370" as="targetPoint" />
          </mxGeometry>
        </mxCell>
        <mxCell id="mAn_lP2nq0I7erpdQkr3-104" value="" style="endArrow=none;html=1;rounded=0;entryX=1;entryY=1;entryDx=0;entryDy=0;exitX=0;exitY=0.75;exitDx=0;exitDy=0;" edge="1" parent="1" source="mAn_lP2nq0I7erpdQkr3-99" target="mAn_lP2nq0I7erpdQkr3-101">
          <mxGeometry width="50" height="50" relative="1" as="geometry">
            <mxPoint x="90" y="430" as="sourcePoint" />
            <mxPoint x="140" y="380" as="targetPoint" />
          </mxGeometry>
        </mxCell>
        <mxCell id="mAn_lP2nq0I7erpdQkr3-105" value="" style="endArrow=none;html=1;rounded=0;entryX=0.5;entryY=1;entryDx=0;entryDy=0;" edge="1" parent="1" source="mAn_lP2nq0I7erpdQkr3-99" target="mAn_lP2nq0I7erpdQkr3-102">
          <mxGeometry width="50" height="50" relative="1" as="geometry">
            <mxPoint x="100" y="440" as="sourcePoint" />
            <mxPoint x="150" y="390" as="targetPoint" />
          </mxGeometry>
        </mxCell>
        <mxCell id="mAn_lP2nq0I7erpdQkr3-106" value="Display" style="rhombus;whiteSpace=wrap;html=1;sketch=0;" vertex="1" parent="1">
          <mxGeometry x="85" y="290" width="80" height="80" as="geometry" />
        </mxCell>
        <mxCell id="mAn_lP2nq0I7erpdQkr3-107" value="" style="endArrow=none;html=1;rounded=0;entryX=1;entryY=0.5;entryDx=0;entryDy=0;" edge="1" parent="1" source="mAn_lP2nq0I7erpdQkr3-1" target="mAn_lP2nq0I7erpdQkr3-106">
          <mxGeometry width="50" height="50" relative="1" as="geometry">
            <mxPoint x="80" y="420" as="sourcePoint" />
            <mxPoint x="150" y="330" as="targetPoint" />
          </mxGeometry>
        </mxCell>
        <mxCell id="mAn_lP2nq0I7erpdQkr3-108" value="" style="endArrow=none;html=1;rounded=0;entryX=1;entryY=0.5;entryDx=0;entryDy=0;exitX=0;exitY=0.5;exitDx=0;exitDy=0;" edge="1" parent="1" source="mAn_lP2nq0I7erpdQkr3-106" target="mAn_lP2nq0I7erpdQkr3-99">
          <mxGeometry width="50" height="50" relative="1" as="geometry">
            <mxPoint x="90" y="430" as="sourcePoint" />
            <mxPoint x="140" y="380" as="targetPoint" />
          </mxGeometry>
        </mxCell>
        <mxCell id="mAn_lP2nq0I7erpdQkr3-109" value="&lt;b&gt;N&lt;/b&gt;" style="text;html=1;resizable=0;autosize=1;align=center;verticalAlign=middle;points=[];fillColor=none;strokeColor=none;rounded=0;sketch=0;" vertex="1" parent="1">
          <mxGeometry x="40" y="270" width="30" height="30" as="geometry" />
        </mxCell>
        <mxCell id="mAn_lP2nq0I7erpdQkr3-110" value="&lt;b&gt;M&lt;/b&gt;" style="text;html=1;resizable=0;autosize=1;align=center;verticalAlign=middle;points=[];fillColor=none;strokeColor=none;rounded=0;sketch=0;" vertex="1" parent="1">
          <mxGeometry x="250" y="350" width="30" height="30" as="geometry" />
        </mxCell>
        <mxCell id="mAn_lP2nq0I7erpdQkr3-112" value="Make" style="rhombus;whiteSpace=wrap;html=1;sketch=0;" vertex="1" parent="1">
          <mxGeometry x="690" y="160" width="80" height="80" as="geometry" />
        </mxCell>
        <mxCell id="mAn_lP2nq0I7erpdQkr3-113" value="" style="endArrow=none;html=1;rounded=0;" edge="1" parent="1" source="mAn_lP2nq0I7erpdQkr3-112" target="mAn_lP2nq0I7erpdQkr3-98">
          <mxGeometry width="50" height="50" relative="1" as="geometry">
            <mxPoint x="680" y="380" as="sourcePoint" />
            <mxPoint x="730" y="330" as="targetPoint" />
          </mxGeometry>
        </mxCell>
        <mxCell id="mAn_lP2nq0I7erpdQkr3-114" value="" style="endArrow=none;html=1;rounded=0;" edge="1" parent="1" source="mAn_lP2nq0I7erpdQkr3-1" target="mAn_lP2nq0I7erpdQkr3-112">
          <mxGeometry width="50" height="50" relative="1" as="geometry">
            <mxPoint x="690" y="390" as="sourcePoint" />
            <mxPoint x="740" y="340" as="targetPoint" />
          </mxGeometry>
        </mxCell>
        <mxCell id="mAn_lP2nq0I7erpdQkr3-115" value="&lt;b&gt;M&lt;/b&gt;" style="text;html=1;resizable=0;autosize=1;align=center;verticalAlign=middle;points=[];fillColor=none;strokeColor=none;rounded=0;sketch=0;" vertex="1" parent="1">
          <mxGeometry x="570" y="280" width="30" height="30" as="geometry" />
        </mxCell>
        <mxCell id="mAn_lP2nq0I7erpdQkr3-116" value="&lt;b&gt;1&lt;/b&gt;" style="text;html=1;resizable=0;autosize=1;align=center;verticalAlign=middle;points=[];fillColor=none;strokeColor=none;rounded=0;sketch=0;" vertex="1" parent="1">
          <mxGeometry x="807.94" y="100" width="30" height="30" as="geometry" />
        </mxCell>
        <mxCell id="mAn_lP2nq0I7erpdQkr3-117" value="&lt;u&gt;Name&lt;/u&gt;" style="ellipse;whiteSpace=wrap;html=1;" vertex="1" parent="1">
          <mxGeometry x="620" y="10" width="90" height="60" as="geometry" />
        </mxCell>
        <mxCell id="mAn_lP2nq0I7erpdQkr3-118" value="Description" style="ellipse;whiteSpace=wrap;html=1;" vertex="1" parent="1">
          <mxGeometry x="640" y="-110" width="90" height="60" as="geometry" />
        </mxCell>
        <mxCell id="mAn_lP2nq0I7erpdQkr3-119" value="Epoch" style="ellipse;whiteSpace=wrap;html=1;" vertex="1" parent="1">
          <mxGeometry x="1050" y="-10" width="90" height="60" as="geometry" />
        </mxCell>
        <mxCell id="mAn_lP2nq0I7erpdQkr3-120" value="CountryOfOrigin" style="ellipse;whiteSpace=wrap;html=1;" vertex="1" parent="1">
          <mxGeometry x="1050" y="-110" width="90" height="60" as="geometry" />
        </mxCell>
        <mxCell id="mAn_lP2nq0I7erpdQkr3-121" value="DateDied" style="ellipse;whiteSpace=wrap;html=1;" vertex="1" parent="1">
          <mxGeometry x="930" y="-160" width="90" height="60" as="geometry" />
        </mxCell>
        <mxCell id="mAn_lP2nq0I7erpdQkr3-122" value="DateBorn" style="ellipse;whiteSpace=wrap;html=1;" vertex="1" parent="1">
          <mxGeometry x="770" y="-170" width="90" height="60" as="geometry" />
        </mxCell>
        <mxCell id="mAn_lP2nq0I7erpdQkr3-123" value="MainStyle" style="ellipse;whiteSpace=wrap;html=1;" vertex="1" parent="1">
          <mxGeometry x="1020" y="80" width="90" height="60" as="geometry" />
        </mxCell>
        <mxCell id="mAn_lP2nq0I7erpdQkr3-125" value="" style="endArrow=none;html=1;rounded=0;" edge="1" parent="1" source="mAn_lP2nq0I7erpdQkr3-98" target="mAn_lP2nq0I7erpdQkr3-118">
          <mxGeometry width="50" height="50" relative="1" as="geometry">
            <mxPoint x="800" y="220" as="sourcePoint" />
            <mxPoint x="850" y="170" as="targetPoint" />
          </mxGeometry>
        </mxCell>
        <mxCell id="mAn_lP2nq0I7erpdQkr3-126" value="" style="endArrow=none;html=1;rounded=0;" edge="1" parent="1" source="mAn_lP2nq0I7erpdQkr3-98" target="mAn_lP2nq0I7erpdQkr3-122">
          <mxGeometry width="50" height="50" relative="1" as="geometry">
            <mxPoint x="810" y="230" as="sourcePoint" />
            <mxPoint x="860" y="180" as="targetPoint" />
          </mxGeometry>
        </mxCell>
        <mxCell id="mAn_lP2nq0I7erpdQkr3-127" value="" style="endArrow=none;html=1;rounded=0;" edge="1" parent="1" source="mAn_lP2nq0I7erpdQkr3-98" target="mAn_lP2nq0I7erpdQkr3-121">
          <mxGeometry width="50" height="50" relative="1" as="geometry">
            <mxPoint x="890" y="50" as="sourcePoint" />
            <mxPoint x="870" y="190" as="targetPoint" />
          </mxGeometry>
        </mxCell>
        <mxCell id="mAn_lP2nq0I7erpdQkr3-128" value="" style="endArrow=none;html=1;rounded=0;" edge="1" parent="1" source="mAn_lP2nq0I7erpdQkr3-98" target="mAn_lP2nq0I7erpdQkr3-120">
          <mxGeometry width="50" height="50" relative="1" as="geometry">
            <mxPoint x="830" y="250" as="sourcePoint" />
            <mxPoint x="880" y="200" as="targetPoint" />
          </mxGeometry>
        </mxCell>
        <mxCell id="mAn_lP2nq0I7erpdQkr3-129" value="" style="endArrow=none;html=1;rounded=0;" edge="1" parent="1" source="mAn_lP2nq0I7erpdQkr3-98" target="mAn_lP2nq0I7erpdQkr3-119">
          <mxGeometry width="50" height="50" relative="1" as="geometry">
            <mxPoint x="840" y="260" as="sourcePoint" />
            <mxPoint x="890" y="210" as="targetPoint" />
          </mxGeometry>
        </mxCell>
        <mxCell id="mAn_lP2nq0I7erpdQkr3-130" value="" style="endArrow=none;html=1;rounded=0;entryX=0;entryY=0;entryDx=0;entryDy=0;exitX=1;exitY=0.5;exitDx=0;exitDy=0;" edge="1" parent="1" source="mAn_lP2nq0I7erpdQkr3-98" target="mAn_lP2nq0I7erpdQkr3-123">
          <mxGeometry width="50" height="50" relative="1" as="geometry">
            <mxPoint x="850" y="270" as="sourcePoint" />
            <mxPoint x="900" y="220" as="targetPoint" />
          </mxGeometry>
        </mxCell>
        <mxCell id="mAn_lP2nq0I7erpdQkr3-131" value="" style="endArrow=none;html=1;rounded=0;" edge="1" parent="1" source="mAn_lP2nq0I7erpdQkr3-98" target="mAn_lP2nq0I7erpdQkr3-117">
          <mxGeometry width="50" height="50" relative="1" as="geometry">
            <mxPoint x="860" y="280" as="sourcePoint" />
            <mxPoint x="910" y="230" as="targetPoint" />
          </mxGeometry>
        </mxCell>
        <mxCell id="mAn_lP2nq0I7erpdQkr3-134" value="COLLECTION" style="rounded=0;whiteSpace=wrap;html=1;sketch=0;" vertex="1" parent="1">
          <mxGeometry x="915" y="980" width="80" height="40" as="geometry" />
        </mxCell>
        <mxCell id="mAn_lP2nq0I7erpdQkr3-135" value="Borrow" style="rhombus;whiteSpace=wrap;html=1;sketch=0;" vertex="1" parent="1">
          <mxGeometry x="915" y="830" width="80" height="80" as="geometry" />
        </mxCell>
        <mxCell id="mAn_lP2nq0I7erpdQkr3-136" value="" style="endArrow=none;html=1;rounded=0;" edge="1" parent="1" source="mAn_lP2nq0I7erpdQkr3-134" target="mAn_lP2nq0I7erpdQkr3-135">
          <mxGeometry width="50" height="50" relative="1" as="geometry">
            <mxPoint x="945" y="970" as="sourcePoint" />
            <mxPoint x="995" y="920" as="targetPoint" />
          </mxGeometry>
        </mxCell>
        <mxCell id="mAn_lP2nq0I7erpdQkr3-137" value="" style="endArrow=none;html=1;rounded=0;entryX=0.5;entryY=1;entryDx=0;entryDy=0;" edge="1" parent="1" source="mAn_lP2nq0I7erpdQkr3-135" target="mAn_lP2nq0I7erpdQkr3-78">
          <mxGeometry width="50" height="50" relative="1" as="geometry">
            <mxPoint x="910" y="850" as="sourcePoint" />
            <mxPoint x="960" y="800" as="targetPoint" />
          </mxGeometry>
        </mxCell>
        <mxCell id="mAn_lP2nq0I7erpdQkr3-139" value="&lt;u&gt;Name&lt;/u&gt;" style="ellipse;whiteSpace=wrap;html=1;" vertex="1" parent="1">
          <mxGeometry x="717.94" y="910" width="90" height="60" as="geometry" />
        </mxCell>
        <mxCell id="mAn_lP2nq0I7erpdQkr3-140" value="Type" style="ellipse;whiteSpace=wrap;html=1;" vertex="1" parent="1">
          <mxGeometry x="720" y="1010" width="90" height="60" as="geometry" />
        </mxCell>
        <mxCell id="mAn_lP2nq0I7erpdQkr3-141" value="Description" style="ellipse;whiteSpace=wrap;html=1;" vertex="1" parent="1">
          <mxGeometry x="825" y="1080" width="90" height="60" as="geometry" />
        </mxCell>
        <mxCell id="mAn_lP2nq0I7erpdQkr3-142" value="Address" style="ellipse;whiteSpace=wrap;html=1;" vertex="1" parent="1">
          <mxGeometry x="970" y="1080" width="90" height="60" as="geometry" />
        </mxCell>
        <mxCell id="mAn_lP2nq0I7erpdQkr3-143" value="Phone" style="ellipse;whiteSpace=wrap;html=1;" vertex="1" parent="1">
          <mxGeometry x="1080" y="1030" width="90" height="60" as="geometry" />
        </mxCell>
        <mxCell id="mAn_lP2nq0I7erpdQkr3-144" value="ContactPerson" style="ellipse;whiteSpace=wrap;html=1;" vertex="1" parent="1">
          <mxGeometry x="1080" y="950" width="90" height="60" as="geometry" />
        </mxCell>
        <mxCell id="mAn_lP2nq0I7erpdQkr3-145" value="" style="endArrow=none;html=1;rounded=0;entryX=0;entryY=0.75;entryDx=0;entryDy=0;" edge="1" parent="1" source="mAn_lP2nq0I7erpdQkr3-140" target="mAn_lP2nq0I7erpdQkr3-134">
          <mxGeometry width="50" height="50" relative="1" as="geometry">
            <mxPoint x="910" y="1060" as="sourcePoint" />
            <mxPoint x="960" y="1010" as="targetPoint" />
          </mxGeometry>
        </mxCell>
        <mxCell id="mAn_lP2nq0I7erpdQkr3-146" value="" style="endArrow=none;html=1;rounded=0;" edge="1" parent="1" source="mAn_lP2nq0I7erpdQkr3-134" target="mAn_lP2nq0I7erpdQkr3-139">
          <mxGeometry width="50" height="50" relative="1" as="geometry">
            <mxPoint x="910" y="1060" as="sourcePoint" />
            <mxPoint x="960" y="1010" as="targetPoint" />
          </mxGeometry>
        </mxCell>
        <mxCell id="mAn_lP2nq0I7erpdQkr3-147" value="" style="endArrow=none;html=1;rounded=0;entryX=0.25;entryY=1;entryDx=0;entryDy=0;" edge="1" parent="1" source="mAn_lP2nq0I7erpdQkr3-141" target="mAn_lP2nq0I7erpdQkr3-134">
          <mxGeometry width="50" height="50" relative="1" as="geometry">
            <mxPoint x="818.1520415115056" y="1041.4911467442103" as="sourcePoint" />
            <mxPoint x="925" y="1020" as="targetPoint" />
          </mxGeometry>
        </mxCell>
        <mxCell id="mAn_lP2nq0I7erpdQkr3-148" value="" style="endArrow=none;html=1;rounded=0;entryX=0.5;entryY=1;entryDx=0;entryDy=0;" edge="1" parent="1" source="mAn_lP2nq0I7erpdQkr3-142" target="mAn_lP2nq0I7erpdQkr3-134">
          <mxGeometry width="50" height="50" relative="1" as="geometry">
            <mxPoint x="910" y="1060" as="sourcePoint" />
            <mxPoint x="960" y="1010" as="targetPoint" />
          </mxGeometry>
        </mxCell>
        <mxCell id="mAn_lP2nq0I7erpdQkr3-149" value="" style="endArrow=none;html=1;rounded=0;exitX=1;exitY=0.5;exitDx=0;exitDy=0;" edge="1" parent="1" source="mAn_lP2nq0I7erpdQkr3-134" target="mAn_lP2nq0I7erpdQkr3-144">
          <mxGeometry width="50" height="50" relative="1" as="geometry">
            <mxPoint x="1000" y="1010" as="sourcePoint" />
            <mxPoint x="1050" y="960" as="targetPoint" />
          </mxGeometry>
        </mxCell>
        <mxCell id="mAn_lP2nq0I7erpdQkr3-150" value="" style="endArrow=none;html=1;rounded=0;" edge="1" parent="1" source="mAn_lP2nq0I7erpdQkr3-134" target="mAn_lP2nq0I7erpdQkr3-143">
          <mxGeometry width="50" height="50" relative="1" as="geometry">
            <mxPoint x="1020" y="1065" as="sourcePoint" />
            <mxPoint x="1070" y="1015" as="targetPoint" />
          </mxGeometry>
        </mxCell>
      </root>
    </mxGraphModel>
  </diagram>
</mxfile>
